<svg width="256" height="256" viewBox="0 0 256 256" fill="none" xmlns="http://www.w3.org/2000/svg">
<rect width="256" height="256" rx="2" fill="#7635DC"/>
<path d="M43.2729 135.414C43.2729 137.669 42.4202 139.417 40.7147 140.66C39.0382 141.874 36.6968 142.481 33.6906 142.481H21.3334V117.724H32.65C35.6851 117.724 37.9687 118.258 39.5007 119.328C41.0616 120.368 41.8421 121.9 41.8421 123.924C41.8421 125.34 41.4518 126.54 40.6714 127.523C39.8909 128.477 38.7058 129.127 37.116 129.474C39.1105 129.705 40.628 130.341 41.6686 131.382C42.7381 132.393 43.2729 133.737 43.2729 135.414ZM36.639 124.661C36.639 123.534 36.2777 122.739 35.555 122.276C34.8324 121.814 33.7773 121.582 32.3899 121.582H26.4931V127.696H32.4332C33.9074 127.696 34.9769 127.45 35.6418 126.959C36.3066 126.439 36.639 125.673 36.639 124.661ZM38.0698 135.024C38.0698 132.711 36.4078 131.555 33.0836 131.555H26.4931V138.622H33.257C34.9336 138.622 36.1476 138.333 36.8992 137.755C37.6796 137.148 38.0698 136.238 38.0698 135.024Z" fill="white"/>
<path d="M72.7271 129.994C72.7271 132.567 72.2068 134.836 71.1662 136.801C70.1545 138.738 68.6948 140.227 66.787 141.267C64.9081 142.308 62.6968 142.828 60.1531 142.828C56.2508 142.828 53.2012 141.686 51.0044 139.403C48.8076 137.119 47.7091 133.983 47.7091 129.994C47.7091 126.034 48.8076 122.941 51.0044 120.715C53.2012 118.461 56.2653 117.333 60.1965 117.333C64.1276 117.333 67.1917 118.461 69.3885 120.715C71.6143 122.97 72.7271 126.063 72.7271 129.994ZM67.4374 129.994C67.4374 127.335 66.8014 125.239 65.5296 123.707C64.2577 122.175 62.48 121.409 60.1965 121.409C57.884 121.409 56.0918 122.175 54.82 123.707C53.5481 125.21 52.9122 127.306 52.9122 129.994C52.9122 132.711 53.5626 134.85 54.8633 136.411C56.1641 137.972 57.9274 138.753 60.1531 138.753C62.4656 138.753 64.2577 138.001 65.5296 136.498C66.8014 134.966 67.4374 132.798 67.4374 129.994Z" fill="white"/>
<path d="M102.06 129.994C102.06 132.567 101.54 134.836 100.499 136.801C99.4874 138.738 98.0277 140.227 96.1199 141.267C94.241 142.308 92.0297 142.828 89.486 142.828C85.5837 142.828 82.5341 141.686 80.3373 139.403C78.1404 137.119 77.042 133.983 77.042 129.994C77.042 126.034 78.1404 122.941 80.3373 120.715C82.5341 118.461 85.5981 117.333 89.5293 117.333C93.4605 117.333 96.5245 118.461 98.7214 120.715C100.947 122.97 102.06 126.063 102.06 129.994ZM96.7703 129.994C96.7703 127.335 96.1343 125.239 94.8625 123.707C93.5906 122.175 91.8129 121.409 89.5293 121.409C87.2169 121.409 85.4247 122.175 84.1529 123.707C82.881 125.21 82.2451 127.306 82.2451 129.994C82.2451 132.711 82.8955 134.85 84.1962 136.411C85.497 137.972 87.2602 138.753 89.486 138.753C91.7984 138.753 93.5906 138.001 94.8625 136.498C96.1343 134.966 96.7703 132.798 96.7703 129.994Z" fill="white"/>
<path d="M112.488 135.012V142.481H107.329V117.724H112.488V128.953L123.632 117.724H129.702L112.488 135.012Z" fill="white"/>
<path d="M134.658 142.481V117.724H154.127V121.713H139.818V127.956H153.043V131.945H139.818V138.492H154.82V142.481H134.658Z" fill="white"/>
<path d="M176.982 142.481L171.215 133.073H165.145V142.481H159.985V117.724H172.342C175.291 117.724 177.56 118.359 179.149 119.631C180.768 120.903 181.578 122.724 181.578 125.095C181.578 126.829 181.086 128.332 180.103 129.604C179.121 130.847 177.791 131.671 176.114 132.075L182.792 142.481H176.982ZM176.374 125.311C176.374 122.941 174.842 121.756 171.778 121.756H165.145V129.04H171.952C173.397 129.04 174.496 128.722 175.247 128.086C175.999 127.421 176.374 126.496 176.374 125.311Z" fill="white"/>
<path d="M202.409 142.481H185.97V138.796L199.368 121.799H187.315L190.187 117.724H205.092V121.322L191.737 138.406H205.829L202.409 142.481Z" fill="white"/>
<path d="M234.667 129.994C234.667 132.567 234.146 134.836 233.106 136.801C232.094 138.738 230.634 140.227 228.727 141.267C226.848 142.308 224.636 142.828 222.093 142.828C218.19 142.828 215.141 141.686 212.944 139.403C210.747 137.119 209.649 133.983 209.649 129.994C209.649 126.034 210.747 122.941 212.944 120.715C215.141 118.461 218.205 117.333 222.136 117.333C226.067 117.333 229.131 118.461 231.328 120.715C233.554 122.97 234.667 126.063 234.667 129.994ZM229.377 129.994C229.377 127.335 228.741 125.239 227.469 123.707C226.197 122.175 224.42 121.409 222.136 121.409C219.824 121.409 218.031 122.175 216.76 123.707C215.488 125.21 214.852 127.306 214.852 129.994C214.852 132.711 215.502 134.85 216.803 136.411C218.104 137.972 219.867 138.753 222.093 138.753C224.405 138.753 226.197 138.001 227.469 136.498C228.741 134.966 229.377 132.798 229.377 129.994Z" fill="white"/>
<path d="M122.444 142.481L117.362 133.994H123.312L128.566 142.481H122.444Z" fill="white"/>
</svg>
